<svg width="800" height="955" viewBox="0 0 800 955" fill="none" xmlns="http://www.w3.org/2000/svg">
<mask id="mask0_104_9" style="mask-type:alpha" maskUnits="userSpaceOnUse" x="0" y="0" width="800" height="955">
<rect width="800" height="955" transform="matrix(1 0 0 -1 0 955)" fill="url(#paint0_linear_104_9)"/>
</mask>
<g mask="url(#mask0_104_9)">
<rect width="1920" height="1078" transform="matrix(1 0 0 -1 -608 1078)" fill="url(#paint1_linear_104_9)"/>
<path opacity="0.1" fill-rule="evenodd" clip-rule="evenodd" d="M352 724.743C352 1058.52 60.5797 1136.67 -13.4233 1151.13C-19.2264 1152.28 -22.4377 1152.99 -27.9872 1153.63C-30.2126 1153.89 -35.5087 1154 -38.8328 1154L-307.576 1153.8C-310.985 1153.8 -322.281 1153.35 -322.844 1153.32C-333.859 1152.51 -355.832 1150.51 -383.974 1145.58C-490.119 1127.24 -683.929 1069.34 -705.057 889.577C-722.72 739.138 -658.435 664.032 -577.7 563.627C-512.627 482.688 -563.615 362.929 -564.009 361.802C-562.319 362.704 -454.343 422.09 -428.567 472.913C-415.364 496.989 -404.787 522.415 -397.016 548.752C-397.523 544.611 -420.116 358.252 -323.774 232.943C-226.333 106.169 -205.882 67.3198 -204.051 2.49591C-207.973 -52.5587 -222.383 -106.356 -246.503 -156C-152.294 -96.2335 -72.4534 -16.3876 -12.6909 77.828C33.8752 151.722 59.7352 236.77 62.1855 324.08C87.4261 298.997 107.145 268.913 120.075 235.76C129.94 197.683 132.067 158.014 126.329 119.1L185.881 220.519C252.728 342.983 352 553.428 352 724.743Z" fill="#D75C1E"/>
<path opacity="0.1" fill-rule="evenodd" clip-rule="evenodd" d="M352 724.976C352 553.637 252.731 343.162 185.8 220.822L126.25 119.388C131.987 158.308 129.861 197.983 119.996 236.065C107.086 269.233 87.3656 299.325 62.108 324.397C59.6598 237.084 33.8 152.032 -12.7664 78.1386C-37.0216 41.4523 -63.9995 6.64134 -93.4718 -26C-99.6128 27.3654 -125.585 70.8129 -211.784 182.813C-308.179 308.14 -285.559 494.524 -285.024 498.666C-292.802 472.324 -303.369 446.887 -316.546 422.788C-333.651 396.326 -356.069 373.711 -382.378 356.377C-398.407 419.233 -403.383 484.399 -397.082 548.96C-404.86 522.618 -415.428 497.181 -428.604 473.082C-431.365 467.782 -434.619 462.754 -438.322 458.064C-443.347 478.314 -452.687 497.239 -465.703 513.543C-546.437 613.962 -610.719 689.08 -593.057 839.54C-571.93 1019.33 -378.152 1077.26 -271.925 1095.58C-249.157 1099.66 -226.169 1102.41 -203.079 1103.8L81.6577 1104H81.8267L85.4324 1103.46C109.005 1099.57 132.253 1093.92 154.983 1086.56C252.534 1027.78 352 920.01 352 724.976Z" fill="#FF6600"/>
<path opacity="0.1" d="M81.9998 943.609C82.1686 816.43 -28.9182 645.467 -28.9182 645.467C-26.0988 664.633 -27.1416 684.17 -31.9852 702.925C-38.3417 719.243 -48.0311 734.051 -60.4322 746.399C-61.6591 703.418 -74.3686 661.553 -97.236 625.169C-126.591 578.754 -165.833 539.424 -212.149 510C-207.744 549.592 -208.957 589.61 -215.751 628.862C-235.222 719.869 -296.393 763.512 -371.464 844.313C-402.978 880.485 -447.857 950.967 -437.474 1024.75C-435.853 1036.6 -432.928 1048.24 -428.752 1059.45C-424.319 1071 -419.256 1082.3 -413.586 1093.29C-404.883 1110.34 -391.988 1124.9 -376.117 1135.58C-360.245 1146.25 -341.92 1152.71 -322.87 1154.32C-322.308 1154.32 -311.025 1154.8 -307.62 1154.8L-39.2165 1155C-35.8963 1155 -30.6064 1155 -28.3836 1154.63L-26.9204 1154.44C-16.2563 1150.52 81.7747 1110.12 81.9998 943.609Z" fill="#FF8300"/>
<path opacity="0.1" fill-rule="evenodd" clip-rule="evenodd" d="M-28.7667 645.019C-25.9483 664.167 -26.991 683.688 -31.8333 702.426C-38.1843 718.749 -47.8731 733.561 -60.2775 745.911C-61.507 702.947 -74.215 661.1 -97.0776 624.728C-101.692 617.767 -106.362 611.144 -111.145 605C-136.044 678.584 -192.173 721.167 -259.471 793.595C-290.981 829.781 -335.856 900.208 -325.475 973.961C-325.221 975.793 -324.631 978.667 -323.702 982.415C-314.875 1016.49 -295.116 1046.73 -267.462 1068.46C-239.809 1090.19 -205.794 1102.22 -170.65 1102.7L-106.953 1103.99H-81.1815C-38.6385 1104.38 2.34418 1087.96 32.8878 1058.3C63.4313 1028.63 81.0761 988.103 81.9994 945.497V943.158C82.3088 815.915 -28.7667 645.019 -28.7667 645.019Z" fill="#FFA511"/>
<g opacity="0.5">
<path d="M611 1078L15.9999 1078L415.449 -8.00001L611 -8L611 1078Z" fill="url(#paint2_linear_104_9)"/>
<path d="M270 0L800 7.25488e-05L444.188 1078L270 1078L270 0Z" fill="url(#paint3_linear_104_9)"/>
</g>
<path d="M-54.9069 512.479C-56.5342 505.722 -53.8682 496.884 -52.1936 488.096C-50.904 481.29 -48.9021 474.035 -51.9087 467.969C-58.2421 455.197 -71.1127 452.214 -83.7697 446.804C-96.2005 441.492 -106.891 454.293 -119.65 455.46C-132.598 456.648 -140.974 452.054 -151.867 459.258C-162.992 466.613 -170.631 463.97 -174.72 477.773C-176.031 482.196 -175.783 486.392 -175.303 490.238C-174.237 498.727 -170.599 505.917 -173.092 514.052C-174.479 518.564 -178.572 523.934 -181.045 530.43C-185.844 543.052 -191.398 556.428 -185.658 565.125C-177.902 576.87 -155.991 574.325 -142.495 581.058C-129.822 587.38 -123.898 574.081 -111.527 573.943C-97.7331 573.806 -88.66 579.302 -77.8391 571.214M-216.388 447.494C-217.108 450.849 -216.848 454.027 -216.657 456.863C-216.234 463.075 -214.816 468.079 -217.531 473.542C-219.133 476.756 -222.578 480.407 -224.179 485.198C-227.35 494.661 -230.675 504.613 -226.261 511.3C-220.519 519.99 -204.07 516.472 -194.086 521.449C-184.97 525.992 -180.529 517.311 -171.922 517.435C-161.929 517.578 -155.639 521.165 -148.04 515.142C-141.144 509.677 -128.306 506.373 -123.425 496.574C-116.958 483.585 -128.646 480.113 -131.478 471.713C-133.024 467.116 -132.106 461.085 -131.639 454.713C-131.296 450.021 -129.876 444.606 -131.916 439.913M-196.309 438.9C-202.808 443.195 -205.126 443.87 -206.415 452.391C-206.845 455.218 -206.579 457.873 -206.534 460.211C-206.431 465.28 -206.171 469.19 -208.954 473.321C-210.691 475.888 -213.782 478.682 -214.954 482.618C-217.306 490.51 -219.52 498.745 -215.768 504.427C-211.041 511.592 -197.329 507.581 -189.095 511.686C-181.756 515.348 -178.054 508.979 -171.302 509.232C-163.209 509.528 -158.306 512.158 -152.322 507.166C-146.993 502.726 -137.156 499.77 -133.149 491.729C-127.524 480.425 -136.155 477.925 -138.951 471.388C-140.454 467.871 -140.399 463.266 -140.552 458.074C-140.657 454.452 -139.546 449.947 -141.104 445.933M8.32037 80.8393C86.7804 119.965 182.196 112.784 227.287 181.052C273.804 251.485 155.487 376.378 160.729 460.632C165.812 542.298 295.781 583.181 256.675 661.68C217.569 740.178 88.1186 757.399 19.8845 802.512C-50.5144 849.052 -110.992 808.161 -195.212 813.403C-276.837 818.488 -310.239 916.96 -388.706 877.833C-467.166 838.707 -590.156 823.165 -635.247 754.897C-681.764 684.463 -546.491 541.895 -551.732 457.64C-556.813 375.968 -643.858 310.632 -604.752 232.133C-565.646 153.635 -492.908 196.757 -424.667 151.647C-354.268 105.106 -302.516 141.882 -218.303 136.637C-136.673 131.561 -70.1397 41.7139 8.32037 80.8393ZM-383.715 868.07C-460.425 829.816 -580.679 814.766 -624.762 748.022C-654.418 703.112 -608.606 628.255 -574.523 558.747C-556.325 521.636 -541.431 486.083 -543.165 457.424C-546.535 402.217 -588.22 354.65 -600.953 305.138C-606.617 283.099 -606.55 260.675 -594.793 237.026C-556.625 160.271 -485.649 202.305 -418.958 158.216C-350.169 112.74 -299.589 148.645 -217.302 143.513C-137.531 138.534 -72.5043 50.7671 4.17371 88.9793C80.8585 127.194 174.036 120.288 218.08 187.057C238.392 217.858 226.539 259.283 207.684 303.014C184.404 357.117 150.382 414.771 153.239 460.286C158.268 540.075 285.199 580 246.933 656.821C208.701 733.562 82.2471 750.425 15.5793 794.513C-53.2029 840.015 -112.303 800.085 -194.611 805.187C-274.367 810.148 -307.03 906.307 -383.715 868.07ZM-378.724 858.306C-453.68 820.934 -571.201 806.367 -614.271 741.156C-643.265 697.251 -598.569 624.102 -565.301 556.173C-547.538 519.915 -532.957 485.187 -534.59 457.209C-537.807 403.302 -578.426 356.859 -590.835 308.499C-596.354 286.965 -596.296 265.049 -584.832 241.934C-547.604 166.931 -478.396 207.873 -413.247 164.802C-346.068 120.389 -296.66 155.424 -216.296 150.398C-138.389 145.529 -74.8752 59.8407 0.0206299 97.1396C74.9302 134.443 165.876 127.815 208.876 193.079C228.708 223.194 217.14 263.67 198.764 306.373C176.1 359.219 142.931 415.519 145.758 459.958C150.725 537.853 274.617 576.819 237.184 651.96C199.835 726.939 76.3689 743.448 11.2722 786.521C-55.9024 830.989 -113.608 792.018 -194.016 796.968C-271.902 801.798 -303.817 895.662 -378.724 858.306ZM-373.734 848.544C-446.932 812.046 -561.724 797.97 -603.786 734.282C-632.117 691.382 -588.53 619.943 -556.083 553.592C-538.757 518.186 -524.483 484.292 -526.02 456.986C-529.092 404.384 -568.633 359.07 -580.719 311.845C-586.094 290.816 -586.045 269.407 -574.873 246.827C-538.585 173.575 -471.144 213.418 -407.536 171.365C-341.966 128.016 -293.731 162.181 -215.292 157.268C-139.247 152.503 -77.2396 68.8945 -4.12811 105.287C69.0016 141.67 157.714 135.327 199.666 199.092C219.019 228.522 207.736 268.049 189.832 309.722C167.789 361.319 135.478 416.253 138.261 459.61C143.188 535.634 264.04 573.648 227.446 647.111C190.967 720.323 70.4883 736.479 6.9649 778.53C-58.593 821.96 -114.912 783.946 -193.417 788.76C-269.432 793.459 -300.608 885.01 -373.734 848.544ZM-368.743 838.78C-440.184 803.157 -552.246 789.57 -593.295 727.416C-620.963 685.521 -578.493 615.79 -546.861 551.018C-529.97 516.465 -516.005 483.406 -517.452 456.769C-520.38 405.472 -558.847 361.276 -570.612 315.194C-575.843 294.67 -575.796 273.771 -564.921 251.717C-529.573 180.215 -463.898 218.961 -401.834 177.932C-337.867 135.648 -290.81 168.941 -214.295 164.134C-140.111 159.473 -79.6131 77.9516 -8.28833 113.422C63.0662 148.894 149.54 142.826 190.448 205.085C209.313 233.828 198.329 272.411 180.897 313.053C159.471 363.392 128.016 416.966 130.766 459.255C135.638 533.408 253.453 570.458 217.693 642.241C182.101 713.699 64.6099 729.502 2.65753 770.537C-61.2928 812.933 -116.225 775.876 -192.825 780.548C-266.961 785.111 -297.393 874.358 -368.743 838.78ZM-363.752 829.018C-433.436 794.269 -542.768 781.172 -582.81 720.542C-609.815 679.652 -568.461 611.628 -537.643 548.436C-521.186 514.729 -507.531 482.511 -508.884 456.552C-511.658 406.556 -549.055 363.493 -560.498 318.547C-565.585 298.528 -565.545 278.129 -554.964 256.617C-520.557 186.866 -456.647 224.513 -396.127 184.509C-333.77 143.289 -287.877 175.706 -213.296 171.018C-140.974 166.46 -81.9819 87.0191 -12.4415 121.583C57.1309 156.142 141.373 150.351 181.241 211.114C199.626 239.171 188.927 276.807 171.973 316.426C151.169 365.511 120.57 417.724 123.276 458.932C128.094 531.187 242.869 567.285 207.951 637.383C173.235 707.077 58.7408 722.521 -1.6405 762.541C-63.9742 803.899 -117.521 767.805 -192.224 772.332C-264.491 776.771 -294.177 863.707 -363.752 829.018ZM-358.759 819.248C-426.686 785.373 -533.289 772.767 -572.322 713.66C-598.657 673.778 -558.419 607.462 -528.426 545.854C-512.404 512.999 -499.004 481.617 -500.314 456.329C-502.836 407.635 -539.269 365.701 -550.382 321.892C-555.325 302.378 -555.294 282.487 -544.998 261.512C-511.537 193.51 -449.39 230.068 -390.408 191.074C-329.659 150.91 -284.94 182.465 -212.285 177.889C-141.825 173.435 -84.3394 96.0746 -16.5902 129.73C51.2069 163.378 133.218 157.865 172.034 217.12C189.939 244.492 179.445 281.144 163.043 319.767C142.757 367.547 113.113 418.448 115.786 458.586C120.558 528.966 232.294 564.106 198.206 632.531C164.365 700.467 52.8672 715.554 -5.94086 754.551C-66.667 794.875 -118.82 759.741 -191.615 764.118C-262.019 768.424 -290.969 853.054 -358.759 819.248ZM-353.775 809.483C-419.948 776.49 -523.811 764.368 -561.838 706.792C-587.511 667.916 -548.391 603.314 -519.203 543.28C-503.618 511.279 -490.517 480.727 -491.746 456.112C-494.106 408.714 -529.475 367.911 -540.275 325.242C-545.074 306.233 -545.052 286.849 -535.048 266.409C-502.528 200.158 -442.146 235.617 -384.715 197.647C-325.576 158.546 -282.029 189.23 -211.297 184.76C-142.698 180.41 -86.7219 105.137 -20.7549 137.879C45.267 170.616 125.042 165.371 162.816 223.137C180.237 249.814 170.019 285.523 154.109 323.121C134.419 369.637 105.658 419.187 108.287 458.244C113.014 526.744 221.703 560.93 188.457 627.671C155.492 693.842 46.9889 708.577 -10.2549 746.557C-69.3643 785.843 -120.14 751.67 -191.03 755.905C-259.556 760.081 -287.753 842.403 -353.775 809.483ZM-348.784 799.719C-413.2 767.601 -514.333 755.97 -551.353 699.917C-576.364 662.053 -538.352 599.154 -509.985 540.698C-494.836 509.549 -482.036 479.834 -483.176 455.889C-485.368 409.795 -519.689 370.118 -530.159 328.587C-534.814 310.083 -534.793 291.209 -525.086 271.295C-493.506 206.795 -434.884 241.158 -379.004 204.209C-321.474 166.172 -279.1 195.987 -210.293 191.629C-143.558 187.39 -89.0861 114.19 -24.908 146.016C39.3318 177.84 116.875 172.873 153.605 229.134C170.545 255.125 160.598 289.881 145.175 326.453C126.087 371.707 98.1957 419.902 100.786 457.887C105.46 524.511 211.112 557.731 178.697 622.798C146.615 687.207 41.0993 701.589 -14.5712 738.547C-72.0731 776.799 -121.453 743.578 -190.44 747.677C-257.084 751.734 -284.546 831.756 -348.784 799.719ZM-343.793 789.956C-406.452 758.712 -504.856 747.571 -540.863 693.052C-565.211 656.192 -528.315 595.001 -500.763 538.125C-486.047 507.821 -473.548 478.942 -474.603 455.681C-476.635 410.89 -509.891 372.337 -520.041 331.949C-524.552 313.949 -524.54 295.582 -515.125 276.203C-484.485 213.454 -427.63 246.719 -373.29 210.788C-317.364 173.817 -276.168 202.759 -209.285 198.508C-144.412 194.372 -91.4483 123.259 -29.0523 154.172C33.4122 185.085 108.724 180.396 144.4 235.155C160.86 260.462 151.192 294.266 136.254 329.812C117.769 373.804 90.754 420.645 93.3073 457.552C97.9298 522.293 200.542 554.562 168.968 617.944C137.76 680.595 35.2414 694.619 -18.8581 730.562C-74.7432 767.775 -122.738 735.518 -189.825 739.466C-254.614 743.393 -281.331 821.105 -343.793 789.956ZM-338.803 780.194C-399.704 749.824 -495.378 739.173 -530.377 686.177C-554.056 650.325 -518.282 590.84 -491.545 535.543C-477.265 506.092 -465.067 478.05 -466.04 455.455C-467.904 411.969 -500.104 374.544 -509.932 335.292C-514.298 317.798 -514.295 299.938 -505.172 281.094C-475.473 220.096 -420.384 252.262 -367.588 217.356C-313.271 181.448 -273.248 209.52 -208.29 205.382C-145.278 201.349 -93.8285 132.315 -33.2169 162.321C27.4655 192.321 100.546 187.909 135.182 241.172C151.162 265.793 141.765 298.645 127.311 333.171C109.428 375.902 83.2829 421.387 85.7968 457.222C90.3796 520.068 189.953 551.379 159.22 613.084C128.888 673.97 29.3563 687.641 -23.1722 722.568C-77.4429 758.75 -124.058 727.448 -189.24 731.252C-252.144 735.053 -278.122 810.451 -338.803 780.194ZM-333.812 770.43C-392.963 740.933 -485.9 730.774 -519.891 679.302C-542.907 644.455 -508.243 586.68 -482.33 532.967C-468.485 504.369 -456.587 477.156 -457.472 455.238C-459.169 413.057 -490.318 376.751 -499.825 338.642C-504.047 321.652 -504.053 304.3 -495.213 285.986C-466.454 226.739 -413.133 257.814 -361.879 223.925C-309.172 189.081 -270.319 216.276 -207.286 212.25C-146.129 208.324 -96.1927 141.368 -37.3632 170.461C21.5463 199.543 92.386 195.413 125.977 247.171C141.471 271.104 132.352 303.005 118.391 336.507C101.111 377.976 75.8416 422.108 78.3184 456.864C82.8386 517.839 179.371 548.198 149.471 608.223C120.015 667.344 23.4783 680.664 -27.4769 714.569C-80.1378 749.71 -125.361 719.374 -188.638 723.036C-249.672 726.706 -274.907 799.8 -333.812 770.43ZM-328.819 760.661C-386.214 732.038 -476.418 722.362 -509.399 672.43C-531.752 638.589 -498.204 582.52 -473.105 530.387C-459.697 502.642 -448.099 476.266 -448.895 455.017C-450.432 414.138 -480.518 378.964 -489.702 341.99C-493.774 325.508 -493.789 308.663 -485.247 290.881C-457.429 233.385 -405.874 263.362 -356.161 230.491C-305.064 196.71 -267.376 223.037 -206.276 219.122C-146.98 215.3 -98.5527 150.431 -41.5121 178.608C15.6152 206.777 84.2233 202.925 116.768 253.184C131.781 276.432 122.936 307.372 109.459 339.855C92.781 380.062 68.3814 422.839 70.8189 456.523C75.2856 515.622 168.782 545.016 139.721 603.362C111.147 660.728 17.5973 673.695 -31.7845 706.577C-82.831 740.687 -126.667 711.308 -188.046 714.825C-247.202 718.366 -271.698 789.147 -328.819 760.661ZM-323.828 750.898C-379.468 723.156 -466.941 713.963 -498.913 665.555C-520.603 632.719 -488.174 578.365 -463.881 527.807C-450.906 500.907 -439.609 475.368 -440.327 454.801C-441.696 415.227 -470.731 381.171 -479.588 345.342C-483.516 329.365 -483.54 313.027 -475.291 295.78C-448.412 240.036 -398.623 268.914 -350.454 237.068C-300.967 204.35 -264.451 229.807 -205.274 225.998C-147.843 222.286 -100.919 159.491 -45.6699 186.76C9.68218 214.017 76.0589 210.443 107.559 259.196C122.092 281.759 113.525 311.749 100.534 343.205C84.4517 382.148 60.9355 423.574 63.3359 456.18C67.7515 513.395 158.208 541.837 129.982 598.497C102.283 654.098 11.7284 666.714 -36.087 698.571C-85.5236 731.641 -127.973 703.218 -187.44 706.595C-244.737 710.016 -268.482 778.496 -323.828 750.898ZM-318.837 741.135C-372.72 714.267 -457.463 705.564 -488.423 658.689C-509.45 626.858 -478.13 574.215 -454.658 525.234C-442.119 499.187 -431.124 474.484 -431.753 454.586C-432.954 416.317 -460.933 383.39 -469.475 348.694C-473.258 333.222 -473.29 317.391 -465.334 300.68C-439.395 246.686 -391.373 274.466 -344.747 243.644C-296.863 211.992 -261.526 236.576 -204.275 232.881C-148.705 229.273 -103.29 168.564 -49.8209 194.913C3.75599 221.26 67.8942 217.961 98.347 265.215C112.394 287.091 104.105 316.129 91.6046 346.569C76.1246 384.25 53.478 424.32 55.8391 455.854C60.2035 511.186 147.621 538.67 120.233 593.659C93.4106 647.496 5.85004 659.76 -40.3943 690.602C-88.2143 722.633 -129.279 695.174 -186.848 698.406C-242.267 701.676 -265.274 767.842 -318.837 741.135ZM-313.853 731.369C-365.98 705.376 -447.993 697.164 -477.944 651.813C-498.302 620.989 -468.105 570.051 -445.448 522.649C-433.345 497.455 -422.648 473.582 -423.189 454.36C-424.231 417.394 -451.151 385.588 -459.366 352.037C-463.005 337.07 -463.046 321.747 -455.379 305.563C-430.379 253.314 -384.118 280.004 -339.041 250.198C-292.766 219.61 -258.602 243.324 -203.274 239.734C-149.565 236.23 -105.657 177.602 -53.9789 203.042C-2.18419 228.475 59.7226 225.454 89.1307 271.203C102.698 292.393 94.6799 320.479 82.6656 349.892C67.7881 386.311 45.9472 425.035 48.342 455.483C52.5434 508.948 137.032 535.465 110.479 588.766C84.5378 640.848 -0.0329971 652.752 -44.7064 682.578C-90.9187 713.576 -130.59 687.076 -186.26 690.163C-239.796 693.329 -262.061 757.198 -313.853 731.369ZM-308.862 721.607C-359.232 696.488 -438.515 688.765 -467.458 644.938C-487.153 615.12 -458.072 565.889 -436.23 520.067C-424.563 495.725 -414.167 472.689 -414.626 454.135C-415.498 418.466 -441.365 387.796 -449.256 355.38C-452.751 340.918 -452.827 326.087 -445.42 310.456C-421.465 259.907 -376.868 285.556 -333.332 256.768C-288.665 227.236 -255.675 250.087 -202.272 246.61C-150.425 243.21 -108.026 186.669 -58.1299 211.196C-8.11039 235.718 51.558 232.972 79.9261 277.225C93.013 297.729 85.2736 324.864 73.7454 353.251C59.4702 388.408 38.4988 425.776 40.8543 455.153C44.9953 506.74 126.455 532.293 100.739 583.924C75.6742 634.24 -5.90213 645.793 -49.009 674.595C-93.6047 704.555 -131.898 679.016 -185.655 681.956C-237.326 684.989 -258.845 746.547 -308.862 721.607ZM-303.872 711.844C-352.484 687.599 -429.031 680.369 -456.968 638.072C-476 609.259 -448.028 561.739 -427.01 517.501C-415.776 494.005 -405.684 471.812 -406.054 453.927C-406.765 419.561 -431.574 390.012 -439.138 358.741C-442.489 344.784 -442.574 330.46 -435.459 315.364C-412.451 266.564 -369.613 291.118 -327.62 263.354C-284.563 234.885 -252.746 256.866 -201.266 253.495C-151.281 250.198 -110.388 195.738 -62.281 219.349C-14.0436 242.959 43.4001 240.492 70.7168 283.237C83.3236 303.056 75.8556 329.238 64.8134 356.599C51.1406 390.494 31.0367 426.513 33.3619 454.814C37.445 504.515 115.871 529.119 90.9972 579.066C66.806 627.624 -11.7737 638.819 -53.3096 666.606C-96.2976 695.531 -133.199 670.845 -185.056 673.747C-234.865 676.539 -255.637 735.894 -303.872 711.844ZM-298.881 702.081C-345.739 678.718 -419.553 671.971 -446.483 631.198C-464.852 603.39 -437.996 557.577 -417.792 514.919C-406.995 492.275 -397.201 470.912 -397.486 453.711C-398.032 420.656 -421.783 392.229 -429.031 362.092C-432.238 348.64 -432.331 334.823 -425.509 320.262C-403.448 273.21 -362.369 296.667 -321.918 269.921C-280.471 242.516 -249.823 263.62 -200.271 260.369C-152.148 257.176 -112.768 204.794 -66.4387 227.501C-19.9766 250.199 35.2288 248.008 61.5054 289.257C73.6254 308.388 66.4356 333.619 55.8863 359.956C42.816 392.589 23.5816 427.253 25.8698 454.475C29.8925 502.297 105.289 525.939 81.2483 574.205C57.9403 621.001 -17.6587 631.84 -57.6144 658.607C-98.9858 686.494 -134.507 662.762 -184.454 665.531C-232.393 668.192 -252.421 725.243 -298.881 702.081ZM-293.888 692.311C-338.988 669.822 -410.073 663.565 -435.997 624.323C-453.696 597.523 -427.959 553.424 -408.568 512.339C-398.206 490.548 -388.713 470.021 -388.915 453.487C-389.294 421.737 -411.994 394.43 -418.915 365.437C-421.978 352.49 -422.078 339.173 -415.547 325.148C-394.433 279.845 -355.114 302.206 -316.206 276.484C-276.362 250.145 -246.893 270.376 -199.274 267.236C-153.001 264.158 -115.128 213.856 -70.5873 235.648C-25.905 257.426 27.0666 255.519 52.2964 295.269C63.9364 313.715 57.0179 337.993 46.9523 363.31C34.4775 394.68 16.1196 427.99 18.3753 454.142C22.3377 500.087 94.7094 522.774 71.5018 569.36C49.07 614.392 -23.5345 624.88 -61.9261 650.629C-101.69 677.482 -135.822 654.7 -183.866 657.333C-229.928 659.842 -249.212 714.589 -293.888 692.311ZM-288.897 682.548C-332.248 660.931 -400.595 655.167 -425.504 617.451C-442.541 591.655 -417.92 549.265 -399.343 509.759C-389.417 488.82 -380.226 469.13 -380.339 453.266C-380.557 422.819 -402.194 396.642 -408.792 368.785C-411.711 356.342 -411.82 343.533 -405.581 330.042C-385.415 286.488 -347.857 307.76 -310.491 283.056C-272.257 257.78 -243.953 277.144 -198.264 274.107C-153.865 271.129 -117.499 222.907 -74.7407 243.786C-31.8337 264.653 18.8995 263.021 43.0847 301.266C54.2469 319.02 47.6044 342.354 38.0248 366.644C26.1525 396.752 8.66195 428.714 10.8829 453.78C14.7873 497.839 84.1273 519.571 61.7526 564.477C40.1949 607.75 -29.413 617.881 -66.2313 642.607C-104.378 668.422 -137.124 646.597 -183.27 649.085C-227.454 651.488 -245.997 703.938 -288.897 682.548ZM-283.906 672.785C-325.5 652.043 -391.118 646.768 -415.021 610.583C-431.395 585.793 -407.889 545.11 -390.128 507.183C-380.637 487.097 -371.745 468.237 -371.771 453.049C-371.821 423.907 -392.409 398.856 -398.686 372.134C-401.46 360.197 -401.578 347.896 -395.625 334.942C-376.405 293.136 -340.6 313.314 -304.782 289.626C-268.157 265.414 -241.026 283.907 -197.262 280.983C-154.725 278.108 -119.868 231.974 -78.8985 251.937C-37.7667 271.893 10.735 270.539 33.8733 307.285C44.5487 324.351 38.1844 346.734 29.0977 370.001C17.8278 398.847 1.20678 429.453 3.3952 453.45C7.23931 495.631 73.5478 516.406 52.0151 559.627C31.3336 601.136 -35.2798 610.915 -70.527 634.627C-107.067 659.408 -138.422 638.533 -182.659 640.888C-224.989 643.139 -242.79 693.292 -283.906 672.785ZM-278.922 663.02C-318.759 643.152 -381.647 638.367 -404.535 603.708C-420.246 579.923 -397.85 540.95 -380.912 504.608C-371.856 485.368 -363.267 467.351 -363.212 452.837C-363.095 424.999 -382.625 401.07 -388.581 375.491C-391.211 364.059 -391.345 352.262 -385.674 339.839C-367.402 299.782 -333.356 318.864 -299.082 296.2C-264.06 273.054 -238.099 290.67 -196.261 287.859C-155.585 285.088 -122.235 241.034 -83.0496 260.091C-43.6999 279.133 2.57039 278.058 24.6641 313.298C34.8594 329.679 28.7665 351.109 20.1658 373.349C9.49832 400.933 -6.25298 430.184 -4.10162 453.102C-0.310957 493.406 62.9613 513.217 42.2593 554.764C22.4609 594.511 -41.2107 603.868 -74.848 626.63C-109.823 650.302 -139.747 630.453 -182.081 632.672C-222.517 634.792 -239.575 682.641 -278.922 663.02ZM-273.932 653.257C-312.014 634.27 -372.17 629.969 -394.05 596.833C-409.091 574.056 -387.891 536.756 -371.695 502.025C-363.113 483.618 -354.786 466.458 -354.642 452.613C-354.365 426.078 -372.839 403.278 -378.465 378.837C-380.951 367.91 -381.094 356.62 -375.716 344.732C-358.388 306.417 -326.104 324.409 -293.373 302.77C-259.968 280.685 -235.181 297.438 -195.266 294.733C-156.446 292.068 -124.611 250.099 -87.2122 268.233C-49.6377 286.365 -5.60587 285.564 15.4409 319.306C25.1563 335.001 19.3347 355.478 11.2247 376.701C1.15957 403.024 -13.7244 430.925 -11.6033 452.767C-7.8729 491.193 52.3679 510.047 32.5079 549.91C13.5836 587.899 -47.0961 596.889 -79.1555 618.638C-112.521 641.27 -141.05 622.379 -181.48 624.456C-220.052 626.442 -236.366 671.987 -273.932 653.257ZM-268.941 643.494C-305.266 625.382 -362.692 621.57 -383.566 589.965C-397.944 568.193 -377.861 532.601 -362.479 499.45C-354.333 481.895 -346.307 465.571 -346.074 452.397C-345.632 427.173 -363.045 405.487 -368.351 382.189C-370.693 371.767 -370.844 360.985 -365.758 349.631C-349.378 313.065 -318.853 329.962 -287.663 309.34C-255.862 288.32 -232.252 304.194 -194.262 301.602C-157.303 299.041 -126.975 259.152 -91.3605 276.38C-55.5682 293.598 -13.761 293.078 6.24115 325.314C15.4697 340.321 9.93308 359.85 2.30225 380.044C-7.16044 405.105 -21.1748 431.651 -19.0907 452.414C-15.4183 488.955 41.7908 506.853 22.7637 545.036C4.71563 581.26 -52.9695 589.899 -83.4579 610.632C-115.214 632.223 -142.356 614.29 -180.883 616.231C-217.579 618.095 -233.15 661.336 -268.941 643.494ZM-263.948 633.724C-298.516 616.486 -353.212 613.165 -373.072 583.086C-386.787 562.319 -367.819 528.435 -353.246 496.865C-345.535 480.163 -337.811 464.676 -337.495 452.169C-336.885 428.25 -353.243 407.693 -358.233 385.527C-360.431 375.61 -360.591 365.336 -355.79 354.519C-340.357 319.702 -311.594 335.509 -281.945 315.905C-251.754 295.949 -229.316 310.952 -193.252 308.474C-158.157 306.023 -129.332 268.208 -95.5095 284.527C-61.4924 300.834 -21.8573 300.55 -2.96826 331.326C5.80992 345.628 0.515083 364.224 -6.62286 383.394C-15.4854 407.2 -28.6279 432.384 -26.5763 452.077C-22.9642 486.739 31.2134 503.682 13.0261 540.187C-4.13892 574.648 -58.8434 582.932 -87.7585 602.643C-117.898 623.196 -143.66 606.217 -180.284 608.022C-215.105 609.741 -229.935 650.685 -263.948 633.724ZM-258.957 623.961C-291.768 607.598 -343.734 604.766 -362.588 576.218C-375.64 556.457 -357.789 524.28 -344.03 494.29C-336.756 478.44 -329.33 463.783 -328.929 451.959C-328.159 429.343 -343.459 409.907 -348.122 388.886C-350.168 379.477 -350.344 369.707 -345.833 359.419C-331.347 326.35 -304.343 341.061 -276.238 322.482C-247.654 303.582 -226.391 317.722 -192.25 315.35C-159.016 313.003 -131.708 277.272 -99.658 292.674C-67.4161 308.07 -30.0172 308.054 -12.1772 337.339C-3.87908 350.955 -8.90265 368.598 -15.5546 386.742C-23.8216 409.284 -36.0898 433.121 -34.073 451.729C-30.5212 484.512 20.6271 500.492 3.2796 535.319C-13.0114 568.023 -64.7261 575.946 -92.0633 594.644C-120.592 614.156 -144.961 598.136 -179.682 599.805C-212.64 601.391 -226.726 640.031 -258.957 623.961ZM-253.966 614.198C-285.02 598.709 -334.25 596.37 -352.096 569.346C-364.485 550.589 -347.752 520.127 -334.806 491.71C-327.972 476.703 -320.843 462.892 -320.352 451.737C-319.417 430.433 -333.7 412.128 -337.999 392.234C-339.926 383.336 -340.086 374.067 -335.868 364.313C-322.328 332.993 -297.084 346.609 -270.52 329.047C-243.546 311.211 -223.448 324.483 -191.24 322.221C-159.867 319.978 -134.066 286.328 -103.807 300.82C-73.3449 315.297 -38.1728 315.568 -21.3775 343.347C-13.5593 356.278 -18.307 372.976 -24.4728 390.094C-32.1397 411.381 -43.5361 433.856 -41.5518 451.394C-38.0534 482.302 10.0565 497.322 -6.45813 530.47C-21.8728 561.409 -70.5909 568.974 -96.3571 586.656C-123.279 605.135 -146.258 590.065 -179.074 591.592C-210.168 593.044 -223.513 629.387 -253.966 614.198ZM-248.975 604.435C-278.275 589.828 -324.773 587.972 -341.61 562.471C-353.33 544.722 -337.72 515.965 -325.59 489.135C-319.192 474.981 -312.364 462.006 -311.785 451.521C-310.691 431.526 -323.913 414.336 -327.892 395.584C-329.676 387.191 -329.844 378.429 -325.918 369.211C-313.326 339.64 -289.834 352.161 -264.821 335.621C-239.456 318.849 -220.53 331.251 -190.245 329.095C-160.734 326.955 -136.441 295.393 -107.965 308.972C-79.2781 322.537 -46.3444 323.084 -30.596 349.364C-23.2579 361.61 -27.7341 377.355 -33.4139 393.447C-40.4784 413.472 -51.0051 434.591 -49.0579 451.051C-45.6198 480.08 -0.539261 494.138 -16.2141 525.607C-30.748 554.791 -76.483 561.993 -100.671 578.663C-125.983 596.1 -147.569 581.99 -178.482 583.38C-207.703 584.695 -220.304 618.734 -248.975 604.435ZM-243.985 594.672C-271.527 580.939 -315.295 579.573 -331.127 555.603C-342.184 538.86 -327.69 511.81 -316.375 486.559C-310.413 473.258 -303.888 461.127 -303.223 451.302C-301.965 432.619 -314.136 416.548 -317.785 398.934C-319.425 391.046 -319.602 382.792 -315.968 374.108C-304.323 346.286 -282.59 357.711 -259.121 342.196C-235.359 326.489 -217.612 338.019 -189.253 335.976C-161.604 333.94 -138.817 304.457 -112.13 317.121C-85.2248 329.773 -54.5159 330.599 -39.8121 355.374C-32.9539 366.935 -37.1588 381.727 -42.3458 396.794C-48.8101 415.565 -58.4672 435.328 -56.5502 450.712C-53.1724 477.862 -11.1234 490.964 -25.9631 520.746C-39.6207 548.165 -82.3613 555.017 -104.985 570.668C-128.687 587.066 -148.886 573.912 -177.897 575.167C-205.231 576.348 -217.089 608.083 -243.985 594.672ZM-239.001 584.906C-264.793 572.046 -305.822 571.165 -320.641 548.728C-331.035 532.99 -317.657 507.648 -307.157 483.977C-301.631 471.528 -295.407 460.233 -294.655 451.085C-293.232 433.713 -304.345 418.764 -307.671 402.286C-309.167 394.903 -309.353 387.156 -306.001 379.002C-295.304 352.929 -275.332 363.265 -253.402 348.761C-231.25 334.117 -214.673 344.77 -188.24 342.84C-162.452 340.908 -141.172 313.506 -116.269 325.263C-91.1394 337.004 -62.6666 338.099 -49.0119 361.382C-42.6383 372.248 -46.5627 386.105 -51.2614 400.139C-57.1255 417.655 -65.9107 436.056 -64.0308 450.361C-60.7065 475.635 -21.6936 487.771 -35.6958 515.883C-48.4771 541.537 -88.2302 548.035 -109.274 562.667C-131.366 578.023 -150.171 565.829 -177.284 566.939C-202.766 567.998 -213.88 597.429 -239.001 584.906ZM-234.008 575.137C-258.043 563.151 -296.342 562.76 -310.156 541.854C-319.887 527.121 -307.625 503.487 -297.939 481.395C-292.847 469.792 -286.927 459.341 -286.086 450.862C-284.503 434.8 -294.556 420.965 -297.556 405.632C-298.907 398.754 -299.102 391.514 -296.043 383.895C-286.292 359.57 -268.08 368.81 -247.693 355.331C-227.151 341.751 -211.747 351.533 -187.238 349.716C-163.315 347.895 -143.564 322.619 -120.427 333.415C-97.0979 344.298 -70.8315 345.617 -58.2283 367.392C-52.3347 377.573 -55.9877 390.478 -60.2003 403.485C-65.4644 419.746 -73.38 436.791 -71.5371 450.017C-68.2708 473.406 -32.2918 484.593 -45.4588 511.018C-57.3661 534.914 -94.1225 541.055 -113.595 554.671C-134.078 568.987 -151.495 557.749 -176.699 558.726C-200.294 559.651 -210.665 586.778 -234.008 575.137ZM-229.017 565.374C-251.295 554.262 -286.865 554.361 -299.663 534.981C-308.724 521.255 -297.586 499.327 -288.708 478.817C-284.058 468.064 -278.427 458.461 -277.508 450.64C-275.768 435.888 -284.756 423.177 -287.44 408.977C-288.646 402.604 -288.851 395.871 -286.083 388.788C-277.275 366.221 -260.827 374.355 -241.984 361.9C-223.052 349.384 -208.82 358.296 -186.237 356.592C-164.175 354.874 -145.933 331.685 -124.576 341.561C-103.029 351.531 -78.9936 353.128 -67.4304 373.407C-62.0169 382.902 -65.3939 394.863 -69.1205 406.844C-73.7844 421.85 -80.8282 437.533 -79.0155 449.683C-75.8095 471.193 -42.8598 481.417 -55.187 506.164C-66.2112 528.298 -99.9846 534.076 -117.887 546.676C-136.761 559.959 -152.783 549.673 -176.09 550.512C-197.822 551.304 -207.456 576.125 -229.017 565.374ZM-224.026 555.611C-244.55 545.38 -277.387 545.963 -289.18 528.113C-297.578 515.393 -287.558 495.179 -279.495 476.248C-275.281 466.348 -269.953 457.589 -268.943 450.431C-267.04 436.997 -274.971 425.391 -277.328 412.336C-278.391 406.468 -278.604 400.243 -276.127 393.687C-268.265 372.869 -253.577 379.907 -236.275 368.47C-218.953 357.017 -205.893 365.06 -185.233 363.461C-165.032 361.847 -148.299 340.746 -128.731 349.706C-108.959 358.765 -87.156 360.639 -76.6443 379.411C-71.7108 388.22 -74.8187 399.235 -78.0569 410.183C-82.1207 423.933 -88.2948 438.261 -86.5192 449.332C-83.3667 468.966 -53.4554 478.232 -64.9428 501.301C-75.0907 521.67 -105.87 527.097 -122.201 538.682C-139.459 550.926 -154.1 541.595 -175.496 542.294C-195.357 542.955 -204.24 565.474 -224.026 555.611ZM-219.035 545.848C-237.802 536.492 -267.909 537.564 -278.694 521.239C-286.429 509.523 -277.525 491.017 -270.277 473.666C-266.499 464.619 -261.482 456.7 -260.373 450.207C-258.316 438.096 -265.185 427.598 -267.212 415.681C-268.131 410.318 -268.346 404.603 -266.167 398.58C-259.246 379.513 -246.32 385.462 -230.566 375.04C-214.847 364.653 -202.959 371.825 -184.231 370.337C-165.892 368.827 -150.673 349.804 -132.882 357.86C-114.892 366.005 -95.3205 368.158 -85.8557 385.43C-81.4021 393.554 -84.2343 403.625 -86.9842 413.54C-90.4501 426.042 -95.75 439 -94.0046 448.995C-90.9078 466.76 -64.0304 475.054 -74.6849 496.443C-83.9588 515.054 -111.741 520.123 -126.499 530.686C-142.147 541.889 -155.395 533.517 -174.894 534.078C-192.884 534.607 -201.034 554.827 -219.035 545.848ZM-214.044 536.085C-231.054 527.603 -258.432 529.166 -268.201 514.366C-275.274 503.656 -267.486 486.858 -261.052 471.086C-257.71 462.891 -252.997 455.816 -251.805 449.99C-249.599 439.193 -255.392 429.808 -257.108 419.038C-257.882 414.18 -258.106 408.972 -256.213 403.486C-250.239 386.168 -239.071 391.021 -224.862 381.623C-210.752 372.299 -200.036 378.602 -183.232 377.22C-166.748 375.816 -153.044 358.877 -137.042 366.018C-120.828 373.252 -103.487 375.682 -95.0695 391.456C-91.096 398.895 -93.6521 408.022 -95.9206 416.901C-98.7909 428.162 -103.21 439.753 -101.508 448.667C-98.4718 464.553 -74.6259 471.891 -84.4407 491.602C-92.8315 508.452 -117.633 513.164 -130.82 522.712C-144.86 532.882 -156.719 525.46 -174.316 525.884C-190.412 526.26 -197.818 544.176 -214.044 536.085ZM-209.053 526.322C-224.306 518.714 -248.947 520.769 -257.718 507.498C-264.127 497.793 -257.458 482.709 -251.837 468.51C-248.928 461.162 -244.523 454.943 -243.237 449.773C-240.886 440.304 -245.607 432.022 -246.994 422.39C-247.624 418.037 -247.857 413.336 -246.256 408.386C-241.224 392.825 -231.821 396.573 -219.152 388.193C-206.65 379.926 -197.107 385.358 -182.231 384.096C-167.608 382.796 -155.411 367.937 -141.191 374.165C-126.752 380.488 -111.65 383.194 -104.276 397.462C-100.79 404.213 -103.065 412.405 -104.845 420.251C-107.12 430.271 -110.663 440.486 -108.991 448.324C-106.008 462.333 -85.1986 468.706 -94.1804 486.737C-101.695 501.822 -123.502 506.183 -135.118 514.715C-147.548 523.844 -158.013 517.382 -173.708 517.671C-187.94 517.913 -194.603 533.525 -209.053 526.322ZM-155.582 556.235C-167.323 550.383 -186.502 553.411 -193.252 543.197C-198.329 535.505 -193.892 523.836 -189.9 512.796C-187.863 507.153 -184.087 502.644 -182.602 498.774C-179.989 491.974 -182.53 485.881 -183.267 478.529C-183.602 475.188 -183.86 471.5 -182.841 467.612C-179.685 455.562 -173.818 457.104 -164.237 450.774C-154.955 444.633 -147.751 448.357 -136.728 447.282C-125.831 446.219 -116.647 435.499 -106 439.904C-95.1185 444.403 -84.4887 447.668 -79.1976 458.928C-76.671 464.309 -78.388 470.638 -79.2052 476.39C-80.2774 483.962 -82.0737 491.399 -80.4766 497.08C-77.5958 507.346 -62.8676 511.793 -70.1744 526.459C-75.9318 538.023 -91.7617 541.671 -100.233 548.166C-109.439 555.223 -117.123 550.676 -129.015 550.678C-139.504 550.674 -144.683 561.668 -155.582 556.235ZM-152.681 507.166C-159.158 503.936 -170.141 508.436 -173.862 502.802C-176.943 498.128 -175.839 491.603 -174.316 485.286C-173.573 482.205 -170.86 480.252 -168.97 478.345C-166.166 475.523 -165.222 472.73 -165.004 468.804C-164.905 466.971 -165.166 464.828 -165.039 462.524C-164.659 455.773 -164.132 453.983 -159.184 450.711C-154.724 447.763 -151.042 448.867 -145.793 448.124C-140.473 447.374 -135.809 442.895 -130.534 444.568C-124.98 446.318 -121.07 450.446 -118.904 457.184C-117.833 460.511 -118.576 464.14 -118.068 466.663C-117.25 470.728 -116.47 473.852 -115.032 476.28C-112.25 480.962 -106.687 482.479 -111.488 492.107C-114.619 498.384 -121.464 500.995 -125.224 504.404C-129.596 508.371 -133.106 506.7 -139.298 506.252C-144.159 505.898 -147.124 509.938 -152.681 507.166ZM-174.842 503.984C-179.562 501.627 -187.815 506.618 -190.528 502.508C-192.949 498.846 -192.933 494.038 -192.25 489.284C-191.929 487.06 -189.636 485.889 -187.551 484.702C-184.763 483.117 -182.569 481.509 -182.047 478.728C-181.797 477.402 -182.06 475.768 -182.239 473.995C-182.744 469.013 -184.038 466.107 -180.631 463.852C-177.782 461.967 -175.269 462.195 -171.948 461.571C-168.497 460.923 -165.33 458.52 -161.839 459.286C-158.052 460.12 -156.407 464.537 -155.267 469.761C-154.686 472.407 -154.952 475.152 -154.154 476.575C-152.515 479.497 -151.038 481.146 -149.678 482.506C-146.865 485.308 -144.425 485.869 -148.385 493.813C-150.635 498.334 -154.476 500.612 -156.679 502.978C-159.427 505.932 -161.547 505.234 -165.853 504.608C-168.832 504.18 -171.061 505.867 -174.842 503.984ZM-137.042 474.88C-128.056 479.358 -127.615 474.919 -132.09 483.91C-136.565 492.9 -134.827 493.646 -143.81 489.162C-146.776 487.688 -152.296 493.161 -153.997 490.584C-155.755 487.927 -156.784 484.843 -156.987 481.652C-157.178 478.565 -147.367 479.989 -145.886 477.024C-144.411 474.057 -151.452 467.074 -148.877 465.372C-146.221 463.614 -143.138 462.584 -139.949 462.381C-136.872 462.195 -140.008 473.406 -137.042 474.88Z" stroke="url(#paint4_linear_104_9)" stroke-opacity="0.15" stroke-width="2" stroke-miterlimit="10"/>
<circle cx="224.508" cy="623.508" r="287.229" fill="#F8D72F" fill-opacity="0.1"/>
<circle cx="227.5" cy="626.5" r="369.5" stroke="#F8D72F" stroke-opacity="0.1" stroke-width="6"/>
<circle cx="225.256" cy="622.76" r="226.642" fill="#F8D72F" fill-opacity="0.2"/>
<circle cx="224.508" cy="623.508" r="181.014" fill="#F8D72F"/>
</g>
<defs>
<linearGradient id="paint0_linear_104_9" x1="400" y1="0" x2="400" y2="955" gradientUnits="userSpaceOnUse">
<stop stop-color="#FFC83E"/>
<stop offset="1" stop-color="#FF9F47"/>
</linearGradient>
<linearGradient id="paint1_linear_104_9" x1="1383.5" y1="424.463" x2="367.925" y2="168.828" gradientUnits="userSpaceOnUse">
<stop stop-color="#FFC83E"/>
<stop offset="1" stop-color="#FF9F47"/>
</linearGradient>
<linearGradient id="paint2_linear_104_9" x1="-536.16" y1="214.987" x2="342.611" y2="275.901" gradientUnits="userSpaceOnUse">
<stop stop-color="white"/>
<stop offset="1" stop-color="white" stop-opacity="0"/>
</linearGradient>
<linearGradient id="paint3_linear_104_9" x1="1291.84" y1="856.655" x2="508.34" y2="807.919" gradientUnits="userSpaceOnUse">
<stop stop-color="white"/>
<stop offset="1" stop-color="white" stop-opacity="0"/>
</linearGradient>
<linearGradient id="paint4_linear_104_9" x1="104" y1="643" x2="-1113.5" y2="-270" gradientUnits="userSpaceOnUse">
<stop stop-color="#D2E5F1"/>
<stop offset="1" stop-color="#D2E5F1" stop-opacity="0"/>
</linearGradient>
</defs>
</svg>
