<svg width="1920" height="846" viewBox="0 0 1920 846" fill="none" xmlns="http://www.w3.org/2000/svg">
<mask id="mask0_34_380" style="mask-type:alpha" maskUnits="userSpaceOnUse" x="0" y="0" width="1920" height="846">
<rect width="1920" height="846" fill="url(#paint0_linear_34_380)"/>
</mask>
<g mask="url(#mask0_34_380)">
<rect width="1920" height="846" fill="url(#paint1_linear_34_380)"/>
<g opacity="0.25">
<path d="M-354 0.000244141H387.231L-110.389 881H-354V0.000244141Z" fill="url(#paint2_linear_34_380)"/>
<path d="M1947 881L1205.77 881L1703.39 0.000106115L1947 0.00012207L1947 881Z" fill="url(#paint3_linear_34_380)"/>
<path d="M983.855 881L242.624 881L740.244 0.000106115L983.855 0.00012207L983.855 881Z" fill="url(#paint4_linear_34_380)"/>
<path d="M609.145 0L1350.38 9.93341e-05L852.756 881L609.145 881L609.145 0Z" fill="url(#paint5_linear_34_380)"/>
</g>
<path opacity="0.1" fill-rule="evenodd" clip-rule="evenodd" d="M984 724.743C984 1058.52 692.58 1136.67 618.577 1151.13C612.774 1152.28 609.562 1152.99 604.013 1153.63C601.787 1153.89 596.491 1154 593.167 1154L324.424 1153.8C321.015 1153.8 309.719 1153.35 309.156 1153.32C298.141 1152.51 276.168 1150.51 248.026 1145.58C141.881 1127.24 -51.9294 1069.34 -73.057 889.577C-90.7197 739.138 -26.4354 664.032 54.3003 563.627C119.373 482.688 68.3854 362.929 67.991 361.802C69.6812 362.704 177.657 422.09 203.433 472.913C216.636 496.989 227.213 522.415 234.984 548.752C234.477 544.611 211.884 358.252 308.226 232.943C405.667 106.169 426.118 67.3198 427.949 2.49591C424.027 -52.5587 409.617 -106.356 385.497 -156C479.706 -96.2335 559.547 -16.3876 619.309 77.828C665.875 151.722 691.735 236.77 694.185 324.08C719.426 298.997 739.145 268.913 752.075 235.76C761.94 197.683 764.067 158.014 758.329 119.1L817.881 220.519C884.728 342.983 984 553.428 984 724.743Z" fill="#D75C1E"/>
<path opacity="0.1" fill-rule="evenodd" clip-rule="evenodd" d="M984 724.976C984 553.637 884.731 343.162 817.8 220.822L758.25 119.388C763.987 158.308 761.861 197.983 751.996 236.065C739.086 269.233 719.366 299.325 694.108 324.397C691.66 237.084 665.8 152.032 619.234 78.1386C594.978 41.4523 568.001 6.64134 538.528 -26C532.387 27.3654 506.415 70.8129 420.216 182.813C323.821 308.14 346.441 494.524 346.976 498.666C339.198 472.324 328.631 446.887 315.454 422.788C298.349 396.326 275.931 373.711 249.622 356.377C233.593 419.233 228.617 484.399 234.918 548.96C227.14 522.618 216.572 497.181 203.396 473.082C200.635 467.782 197.381 462.754 193.678 458.064C188.653 478.314 179.313 497.239 166.297 513.543C85.5634 613.962 21.2807 689.08 38.9429 839.54C60.07 1019.33 253.848 1077.26 360.075 1095.58C382.843 1099.66 405.831 1102.41 428.921 1103.8L713.658 1104H713.827L717.432 1103.46C741.005 1099.57 764.253 1093.92 786.983 1086.56C884.534 1027.78 984 920.01 984 724.976Z" fill="#FF6600"/>
<path opacity="0.1" d="M714 943.609C714.169 816.43 603.082 645.467 603.082 645.467C605.901 664.633 604.858 684.17 600.015 702.925C593.658 719.243 583.969 734.051 571.568 746.399C570.341 703.418 557.631 661.553 534.764 625.169C505.409 578.754 466.167 539.424 419.851 510C424.256 549.592 423.043 589.61 416.249 628.862C396.778 719.869 335.607 763.512 260.536 844.313C229.022 880.485 184.143 950.967 194.526 1024.75C196.147 1036.6 199.072 1048.24 203.248 1059.45C207.681 1071 212.744 1082.3 218.414 1093.29C227.117 1110.34 240.012 1124.9 255.883 1135.58C271.755 1146.25 290.08 1152.71 309.13 1154.32C309.692 1154.32 320.975 1154.8 324.38 1154.8L592.783 1155C596.104 1155 601.394 1155 603.616 1154.63L605.08 1154.44C615.744 1150.52 713.775 1110.12 714 943.609Z" fill="#FF8300"/>
<path opacity="0.1" fill-rule="evenodd" clip-rule="evenodd" d="M603.233 645.019C606.052 664.167 605.009 683.688 600.167 702.426C593.816 718.749 584.127 733.561 571.723 745.911C570.493 702.947 557.785 661.1 534.922 624.728C530.308 617.767 525.638 611.144 520.855 605C495.956 678.584 439.827 721.167 372.529 793.595C341.019 829.781 296.144 900.208 306.525 973.961C306.779 975.793 307.369 978.667 308.298 982.415C317.125 1016.49 336.884 1046.73 364.538 1068.46C392.191 1090.19 426.206 1102.22 461.35 1102.7L525.047 1103.99H550.818C593.362 1104.38 634.344 1087.96 664.888 1058.3C695.431 1028.63 713.076 988.103 713.999 945.497V943.158C714.309 815.915 603.233 645.019 603.233 645.019Z" fill="#FFA511"/>
</g>
<defs>
<linearGradient id="paint0_linear_34_380" x1="1790" y1="595.075" x2="409.188" y2="-0.809151" gradientUnits="userSpaceOnUse">
<stop stop-color="#FFC83E"/>
<stop offset="1" stop-color="#FF9F47"/>
</linearGradient>
<linearGradient id="paint1_linear_34_380" x1="1790" y1="595.075" x2="409.188" y2="-0.809151" gradientUnits="userSpaceOnUse">
<stop stop-color="#FFC83E"/>
<stop offset="1" stop-color="#FF9F47"/>
</linearGradient>
<linearGradient id="paint2_linear_34_380" x1="1075.09" y1="700.105" x2="-12.5854" y2="584.325" gradientUnits="userSpaceOnUse">
<stop stop-color="white"/>
<stop offset="1" stop-color="white" stop-opacity="0"/>
</linearGradient>
<linearGradient id="paint3_linear_34_380" x1="517.907" y1="180.895" x2="1605.59" y2="296.675" gradientUnits="userSpaceOnUse">
<stop stop-color="white"/>
<stop offset="1" stop-color="white" stop-opacity="0"/>
</linearGradient>
<linearGradient id="paint4_linear_34_380" x1="-445.238" y1="180.895" x2="642.441" y2="296.675" gradientUnits="userSpaceOnUse">
<stop stop-color="white"/>
<stop offset="1" stop-color="white" stop-opacity="0"/>
</linearGradient>
<linearGradient id="paint5_linear_34_380" x1="2038.24" y1="700.105" x2="950.56" y2="584.325" gradientUnits="userSpaceOnUse">
<stop stop-color="white"/>
<stop offset="1" stop-color="white" stop-opacity="0"/>
</linearGradient>
</defs>
</svg>
